<svg width="331" height="73" viewBox="0 0 331 73" fill="none" xmlns="http://www.w3.org/2000/svg">
<path d="M301.471 73H87L106.529 0H321L301.471 73Z" fill="#9ED208"/>
<path d="M116.232 46.848H118.752C119.088 46.848 119.316 46.788 119.436 46.668C119.556 46.524 119.616 46.296 119.616 45.984V24.384C119.616 24.048 119.556 23.82 119.436 23.7C119.316 23.58 119.088 23.52 118.752 23.52H116.232V22.368H129.048C130.728 22.368 132.216 22.656 133.512 23.232C134.832 23.784 135.852 24.576 136.572 25.608C137.316 26.616 137.688 27.768 137.688 29.064C137.688 30.384 137.316 31.56 136.572 32.592C135.852 33.624 134.832 34.44 133.512 35.04C132.216 35.616 130.728 35.904 129.048 35.904H124.944V45.984C124.944 46.296 125.004 46.524 125.124 46.668C125.268 46.788 125.496 46.848 125.808 46.848H128.976V48H116.232V46.848ZM128.508 34.752C129.756 34.752 130.632 34.248 131.136 33.24C131.664 32.232 131.928 30.84 131.928 29.064C131.928 27.312 131.676 25.956 131.172 24.996C130.668 24.012 129.78 23.52 128.508 23.52H125.808C125.496 23.52 125.268 23.58 125.124 23.7C125.004 23.82 124.944 24.048 124.944 24.384V34.752H128.508ZM148.349 46.848H150.869C151.205 46.848 151.433 46.788 151.553 46.668C151.673 46.524 151.733 46.296 151.733 45.984V24.384C151.733 24.048 151.673 23.82 151.553 23.7C151.433 23.58 151.205 23.52 150.869 23.52H148.349V22.368H160.445V23.52H157.925C157.613 23.52 157.385 23.58 157.241 23.7C157.121 23.82 157.061 24.048 157.061 24.384V45.984C157.061 46.296 157.121 46.524 157.241 46.668C157.385 46.788 157.613 46.848 157.925 46.848H160.445V48H148.349V46.848ZM171.045 46.848H173.565C173.901 46.848 174.129 46.788 174.249 46.668C174.369 46.524 174.429 46.296 174.429 45.984V24.384C174.429 24.048 174.369 23.82 174.249 23.7C174.129 23.58 173.901 23.52 173.565 23.52H171.045V22.368H182.853V23.52H180.621C180.309 23.52 180.081 23.58 179.937 23.7C179.817 23.82 179.757 24.048 179.757 24.384V35.04L186.705 26.976C187.041 26.592 187.269 26.268 187.389 26.004C187.533 25.716 187.605 25.392 187.605 25.032C187.605 24.6 187.485 24.24 187.245 23.952C187.005 23.664 186.693 23.52 186.309 23.52H185.265V22.368H194.157V23.52H192.897C192.393 23.52 191.865 23.7 191.313 24.06C190.785 24.396 190.317 24.816 189.909 25.32L185.085 30.9L192.681 45.264C192.993 45.864 193.293 46.284 193.581 46.524C193.869 46.74 194.289 46.848 194.841 46.848H195.813V48H184.509V46.848H185.949C186.165 46.848 186.345 46.776 186.489 46.632C186.633 46.464 186.705 46.284 186.705 46.092C186.705 45.948 186.681 45.792 186.633 45.624C186.609 45.432 186.573 45.288 186.525 45.192L181.305 35.256L179.757 37.02V45.984C179.757 46.296 179.817 46.524 179.937 46.668C180.081 46.788 180.309 46.848 180.621 46.848H182.853V48H171.045V46.848ZM211.204 29.388H211.06V43.104C211.06 44.208 211.48 45.108 212.32 45.804C213.184 46.5 214.276 46.848 215.596 46.848V48H205.084V46.848C206.404 46.848 207.484 46.5 208.324 45.804C209.188 45.108 209.62 44.208 209.62 43.104V27.732C209.62 27.468 209.596 27.276 209.548 27.156C209.5 27.036 209.392 26.856 209.224 26.616L207.784 24.456C207.544 24.096 207.28 23.856 206.992 23.736C206.704 23.592 206.284 23.52 205.732 23.52H205.084V22.368H213.076L224.596 38.82V27.264C224.596 26.16 224.164 25.26 223.3 24.564C222.46 23.868 221.38 23.52 220.06 23.52V22.368H230.572V23.52C229.252 23.52 228.16 23.868 227.296 24.564C226.456 25.26 226.036 26.16 226.036 27.264V48.648H224.668L211.204 29.388ZM239.92 46.848H242.44C242.776 46.848 243.004 46.788 243.124 46.668C243.244 46.524 243.304 46.296 243.304 45.984V24.384C243.304 24.048 243.244 23.82 243.124 23.7C243.004 23.58 242.776 23.52 242.44 23.52H239.92V22.368H252.016V23.52H249.496C249.184 23.52 248.956 23.58 248.812 23.7C248.692 23.82 248.632 24.048 248.632 24.384V45.984C248.632 46.296 248.692 46.524 248.812 46.668C248.956 46.788 249.184 46.848 249.496 46.848H252.016V48H239.92V46.848ZM262.616 46.848H265.136C265.472 46.848 265.7 46.788 265.82 46.668C265.94 46.524 266 46.296 266 45.984V24.384C266 24.048 265.94 23.82 265.82 23.7C265.7 23.58 265.472 23.52 265.136 23.52H262.616V22.368H274.424V23.52H272.192C271.88 23.52 271.652 23.58 271.508 23.7C271.388 23.82 271.328 24.048 271.328 24.384V35.04L278.276 26.976C278.612 26.592 278.84 26.268 278.96 26.004C279.104 25.716 279.176 25.392 279.176 25.032C279.176 24.6 279.056 24.24 278.816 23.952C278.576 23.664 278.264 23.52 277.88 23.52H276.836V22.368H285.728V23.52H284.468C283.964 23.52 283.436 23.7 282.884 24.06C282.356 24.396 281.888 24.816 281.48 25.32L276.656 30.9L284.252 45.264C284.564 45.864 284.864 46.284 285.152 46.524C285.44 46.74 285.86 46.848 286.412 46.848H287.384V48H276.08V46.848H277.52C277.736 46.848 277.916 46.776 278.06 46.632C278.204 46.464 278.276 46.284 278.276 46.092C278.276 45.948 278.252 45.792 278.204 45.624C278.18 45.432 278.144 45.288 278.096 45.192L272.876 35.256L271.328 37.02V45.984C271.328 46.296 271.388 46.524 271.508 46.668C271.652 46.788 271.88 46.848 272.192 46.848H274.424V48H262.616V46.848Z" fill="#097AAA"/>
<path d="M1.584 46.848H2.808C3.528 46.848 4.164 46.572 4.716 46.02C5.268 45.444 5.688 44.748 5.976 43.932L13.572 21.72H15.084L22.788 45.012C23.196 46.236 23.904 46.848 24.912 46.848H26.352V48H13.716V46.848H16.308C16.596 46.848 16.824 46.74 16.992 46.524C17.184 46.284 17.28 46.008 17.28 45.696C17.28 45.432 17.208 45.084 17.064 44.652L15.912 41.196H8.352L7.596 43.392C7.332 44.064 7.2 44.676 7.2 45.228C7.2 45.66 7.368 46.044 7.704 46.38C8.064 46.692 8.52 46.848 9.072 46.848H10.764V48H1.584V46.848ZM8.82 39.864H15.48L12.204 29.964L8.82 39.864ZM39.8084 46.848H42.1124C42.4484 46.848 42.6764 46.788 42.7964 46.668C42.9164 46.524 42.9764 46.296 42.9764 45.984V38.316L36.8564 25.104C36.5684 24.504 36.2684 24.096 35.9564 23.88C35.6444 23.64 35.2364 23.52 34.7324 23.52H33.4724V22.368H44.7764V23.52H43.7684C43.4324 23.52 43.1804 23.64 43.0124 23.88C42.8444 24.12 42.7604 24.384 42.7604 24.672C42.7604 25.056 42.8324 25.392 42.9764 25.68L47.7284 36.012L51.0404 27.768C51.3764 27 51.5444 26.316 51.5444 25.716C51.5444 25.14 51.3884 24.636 51.0764 24.204C50.7644 23.748 50.2724 23.52 49.6004 23.52H48.5924V22.368H57.5204V23.52H56.4404C55.6244 23.52 54.9404 23.784 54.3884 24.312C53.8604 24.816 53.4524 25.428 53.1644 26.148L48.3044 37.992V45.984C48.3044 46.296 48.3644 46.524 48.4844 46.668C48.6284 46.788 48.8564 46.848 49.1684 46.848H51.4724V48H39.8084V46.848ZM78.7776 48.648C76.9296 48.648 75.1776 48.012 73.5216 46.74C71.8896 45.468 70.5816 43.8 69.5976 41.736C68.6136 39.648 68.1216 37.464 68.1216 35.184C68.1216 32.904 68.6136 30.732 69.5976 28.668C70.5816 26.58 71.8896 24.9 73.5216 23.628C75.1776 22.356 76.9296 21.72 78.7776 21.72C80.6256 21.72 82.3656 22.356 83.9976 23.628C85.6536 24.9 86.9736 26.58 87.9576 28.668C88.9416 30.732 89.4336 32.904 89.4336 35.184C89.4336 37.464 88.9416 39.648 87.9576 41.736C86.9736 43.8 85.6536 45.468 83.9976 46.74C82.3656 48.012 80.6256 48.648 78.7776 48.648ZM78.7776 47.496C80.2416 47.496 81.3576 46.968 82.1256 45.912C82.9176 44.832 83.3136 43.056 83.3136 40.584V29.784C83.3136 27.312 82.9176 25.548 82.1256 24.492C81.3576 23.412 80.2416 22.872 78.7776 22.872C77.3136 22.872 76.1856 23.412 75.3936 24.492C74.6256 25.548 74.2416 27.312 74.2416 29.784V40.584C74.2416 43.056 74.6256 44.832 75.3936 45.912C76.1856 46.968 77.3136 47.496 78.7776 47.496Z" fill="#AE66AB"/>
</svg>
